<?xml version="1.0" encoding="utf-8"?>
<!-- Generator: Adobe Illustrator 16.0.0, SVG Export Plug-In . SVG Version: 6.00 Build 0)  -->
<!DOCTYPE svg PUBLIC "-//W3C//DTD SVG 1.1//EN" "http://www.w3.org/Graphics/SVG/1.1/DTD/svg11.dtd">
<svg version="1.1" id="Layer_1" xmlns="http://www.w3.org/2000/svg" xmlns:xlink="http://www.w3.org/1999/xlink" x="0px" y="0px"
	 width="432px" height="157.492px" viewBox="0 0 432 157.492" enable-background="new 0 0 432 157.492" xml:space="preserve">
<path fill="#FFFFFF" d="M80.533,25.951c-2.833-2.783-6.217-4.946-10.145-6.49c-3.928-1.541-8.329-2.313-13.202-2.313l-31.33,0.149
	c-1.292,0-2.388,0.448-3.28,1.342c-0.896,0.896-1.344,1.992-1.344,3.284v86.978c0,1.293,0.448,2.387,1.344,3.282
	c0.893,0.896,1.988,1.342,3.28,1.342h31.48c4.869,0,9.271-0.769,13.202-2.312c3.928-1.541,7.284-3.704,10.07-6.491
	c2.783-2.783,4.948-6.14,6.492-10.069c1.541-3.928,2.312-8.281,2.312-13.054V49.076c0-4.775-0.771-9.125-2.312-13.054
	C85.556,32.093,83.368,28.737,80.533,25.951z M80.16,81.6c0,7.063-2.011,12.606-6.041,16.633c-4.029,4.029-9.624,6.043-16.783,6.043
	H30.479V26.399h26.706c7.358,0,13.029,2.013,17.009,6.042c3.977,4.027,5.965,9.574,5.965,16.635V81.6z"/>
<path fill="#FFFFFF" d="M137.45,45.644c0-1.29-0.474-2.386-1.419-3.282c-0.945-0.895-2.214-1.343-3.803-1.343
	c-4.873,0.1-9.452,1.096-13.726,2.985c-4.277,1.89-8.032,4.476-11.263,7.757c-3.234,3.282-5.769,7.086-7.61,11.413
	c-1.841,4.327-2.76,8.928-2.76,13.8v31.927c0,1.293,0.448,2.387,1.344,3.282c0.896,0.896,1.988,1.342,3.283,1.342
	c1.292,0,2.387-0.446,3.28-1.342c0.896-0.895,1.344-1.988,1.344-3.282V76.974c0-3.581,0.67-6.986,2.015-10.22
	c1.341-3.229,3.205-6.042,5.592-8.428c2.387-2.387,5.17-4.302,8.356-5.745c3.182-1.44,6.563-2.212,10.145-2.312
	c1.589,0,2.858-0.448,3.803-1.343C136.976,48.031,137.45,46.939,137.45,45.644z"/>
<path fill="#FFFFFF" d="M204.732,77.571c0-4.973-0.968-9.646-2.908-14.023c-0.101-0.224-0.222-0.432-0.323-0.653
	c-0.383-0.841-0.792-1.667-1.233-2.475c-0.013-0.024-0.026-0.051-0.039-0.076c-0.124-0.229-0.239-0.462-0.37-0.688h-0.056
	c-1.625-2.786-3.548-5.331-5.811-7.595c-3.284-3.284-7.087-5.894-11.414-7.833c-4.327-1.939-8.879-2.911-13.65-2.911
	c-5.174,0.202-9.975,1.269-14.4,3.208c-4.425,1.939-8.254,4.528-11.485,7.757c-2.197,2.199-4.048,4.67-5.602,7.373h-0.082
	c-0.732,1.254-1.422,2.542-2.024,3.901c-1.386,3.128-2.253,6.413-2.656,9.842h-0.013c-0.046,0.381-0.079,0.765-0.107,1.15
	c-0.004,0.085-0.004,0.17-0.007,0.255c-0.01,0.118-0.017,0.237-0.026,0.356c-0.043,0.667-0.092,1.333-0.102,2.01
	c-0.003,0.164-0.013,0.323-0.013,0.487c0,0.751,0.063,1.483,0.108,2.222c0.108,1.685,0.285,3.349,0.615,4.963
	c0.474,2.297,1.184,4.527,2.126,6.688c0.821,1.882,1.812,3.63,2.888,5.313c0.304,0.484,0.599,0.973,0.922,1.438
	c0.075,0.107,0.137,0.225,0.212,0.332c0.111,0.152,0.651,0.918,1.439,2.036c2.679,3.789,8.353,11.811,10.917,15.265
	c5.514,7.42,11.283,14.661,17.176,22.277c7.126-9.263,13.942-18.242,20.895-27.123c2.361-3.019,4.592-6.112,6.609-9.335
	c0.491-0.782,4.536-7.01,5.688-9.677c1.537-3.566,2.358-7.62,2.649-11.713C204.676,80.184,204.732,78.133,204.732,77.571z
	 M158.26,52.806c3.231-1.392,6.688-2.09,10.367-2.09s7.162,0.698,10.446,2.09c3.28,1.393,6.138,3.308,8.578,5.742
	c0.353,0.355,0.671,0.736,1.004,1.107H188.5c0.239,0.276,0.498,0.533,0.727,0.817c3.362,4.049,5.553,9.098,6.076,14.635
	c0.052,0.388,0.075,0.79,0.118,1.184c0.02,0.427,0.063,0.847,0.063,1.279c0,3.681-0.697,7.138-2.09,10.369
	c-1.393,3.232-3.307,6.068-5.743,8.504c-2.439,2.438-5.298,4.351-8.578,5.742c-3.284,1.396-6.767,2.09-10.446,2.09
	s-7.136-0.694-10.367-2.09c-3.235-1.392-6.066-3.304-8.503-5.742c-2.439-2.437-4.353-5.272-5.746-8.504
	c-1.393-3.231-2.086-6.688-2.086-10.369c0-3.678,0.693-7.161,2.086-10.442c1.393-3.283,3.306-6.14,5.746-8.58
	C152.193,56.114,155.025,54.199,158.26,52.806z"/>
<path fill="#FFFFFF" d="M273.88,52.061c-3.231-3.284-7.038-5.869-11.41-7.76c-4.379-1.886-9.101-2.833-14.173-2.833
	c-4.975,0-9.625,0.895-13.952,2.685s-8.13,4.278-11.411,7.46c-3.283,3.184-5.87,6.962-7.76,11.338
	c-1.891,4.377-2.833,9.152-2.833,14.322v58.631c0,1.292,0.448,2.388,1.341,3.282c0.896,0.894,1.989,1.342,3.284,1.342
	c1.292,0,2.387-0.448,3.28-1.342c0.896-0.895,1.344-1.99,1.344-3.282V99.95c3.284,3.58,7.211,6.69,11.787,9.324
	c4.572,2.636,9.644,4.054,15.217,4.251c4.775,0,9.324-0.97,13.65-2.909s8.13-4.551,11.414-7.833s5.894-7.11,7.833-11.487
	c1.939-4.375,2.907-9.049,2.907-14.023c0-4.873-0.945-9.474-2.832-13.801C279.676,59.146,277.111,55.342,273.88,52.061z
	 M273.06,87.715c-1.394,3.282-3.307,6.144-5.743,8.579c-2.437,2.439-5.294,4.353-8.578,5.744c-3.283,1.393-6.763,2.088-10.442,2.088
	c-3.581,0-6.963-0.67-10.146-2.013c-3.185-1.344-5.968-3.208-8.355-5.596s-4.327-5.221-5.818-8.503
	c-1.492-3.283-2.29-6.863-2.388-10.742c0-3.679,0.694-7.136,2.09-10.369c1.39-3.231,3.304-6.066,5.743-8.504
	c2.437-2.437,5.272-4.35,8.503-5.743s6.688-2.09,10.371-2.09c3.679,0,7.159,0.697,10.442,2.09c3.284,1.393,6.142,3.306,8.578,5.743
	c2.437,2.438,4.35,5.273,5.743,8.504c1.393,3.233,2.089,6.69,2.089,10.369C275.149,80.954,274.453,84.434,273.06,87.715z"/>
<g>
	<path fill="#FFFFFF" d="M326.187,18.939c-1.694,0-3.133,0.597-4.327,1.791c-1.193,1.194-1.792,2.636-1.792,4.327
		c0,1.692,0.599,3.133,1.792,4.327c1.194,1.192,2.632,1.789,4.327,1.789c1.691,0,3.133-0.597,4.327-1.789
		c1.194-1.194,1.789-2.634,1.789-4.327c0-1.691-0.595-3.133-1.789-4.327C329.32,19.536,327.878,18.939,326.187,18.939z"/>
	<path fill="#FFFFFF" d="M326.187,41.168c-1.295,0-2.387,0.448-3.283,1.342c-0.896,0.896-1.341,1.992-1.341,3.284v63.107
		c0,1.293,0.444,2.387,1.341,3.282c0.896,0.896,1.988,1.342,3.283,1.342c1.292,0,2.388-0.446,3.28-1.342
		c0.896-0.895,1.344-1.988,1.344-3.282V45.794c0-1.292-0.448-2.388-1.344-3.284C328.575,41.616,327.479,41.168,326.187,41.168z"/>
	<path fill="#FFFFFF" d="M408.09,62.951c-1.89-4.376-4.454-8.18-7.686-11.414c-3.231-3.231-7.034-5.792-11.41-7.682
		c-4.379-1.889-9.053-2.836-14.023-2.836c-4.978,0-9.651,0.947-14.026,2.836c-4.376,1.89-8.183,4.451-11.41,7.682
		c-3.235,3.234-5.795,7.038-7.686,11.414c-1.89,4.377-2.835,9.051-2.835,14.023v31.927c0,1.293,0.448,2.387,1.344,3.282
		c0.896,0.896,1.988,1.342,3.283,1.342c1.292,0,2.387-0.446,3.28-1.342c0.896-0.895,1.344-1.988,1.344-3.282V76.974
		c0-3.678,0.693-7.136,2.086-10.369c1.393-3.231,3.306-6.065,5.746-8.503c2.437-2.437,5.269-4.349,8.503-5.744
		c3.231-1.392,6.688-2.088,10.37-2.088c3.676,0,7.133,0.696,10.367,2.088c3.231,1.395,6.066,3.308,8.503,5.744
		c2.437,2.438,4.35,5.272,5.746,8.503c1.39,3.233,2.086,6.691,2.086,10.369v31.927c0,1.293,0.448,2.387,1.344,3.282
		c0.896,0.896,1.988,1.342,3.28,1.342s2.387-0.446,3.283-1.342c0.896-0.895,1.344-1.988,1.344-3.282V76.974
		C410.926,72.001,409.978,67.328,408.09,62.951z"/>
</g>
<circle fill="#FFFFFF" cx="168.496" cy="77.668" r="15.29"/>
</svg>
