<?xml version="1.0" encoding="utf-8"?>
<!-- Generator: Adobe Illustrator 16.0.0, SVG Export Plug-In . SVG Version: 6.00 Build 0)  -->
<!DOCTYPE svg PUBLIC "-//W3C//DTD SVG 1.1//EN" "http://www.w3.org/Graphics/SVG/1.1/DTD/svg11.dtd">
<svg version="1.1" id="Layer_1" xmlns="http://www.w3.org/2000/svg" xmlns:xlink="http://www.w3.org/1999/xlink" x="0px" y="0px"
	 width="300px" height="300px" viewBox="0 0 300 300" enable-background="new 0 0 300 300" xml:space="preserve">
<g>
	<path d="M-175.172-143.674l-0.043-1.031c-0.006-0.157-0.012-0.31-0.02-0.455l-0.695-16.377l-15.092,9.588l13.654,7.13
		c0.434,7.546-2.885,13.022-6.447,16.676c0.119,0.388,0.188,0.796,0.207,1.218c7.029-5.543,8.338-12.562,8.402-16.767
		L-175.172-143.674z"/>
	<path d="M-166.469-167.846l-0.139,0.115v-0.115l-7.662,5.316v6.765l5.506-3.667c8.537,33.058-19.68,54.358-19.68,54.358
		C-148.223-132.652-166.469-167.846-166.469-167.846z"/>
	<path d="M-208.146-159.352l6.62,4.408l-0.479,11.27l15.852-8.275l-24.267-15.896c0,0-18.246,35.193,21.976,62.772
		C-188.443-105.073-216.616-126.339-208.146-159.352z"/>
	<circle cx="-188.604" cy="-139.415" r="3.762"/>
	<circle cx="-188.604" cy="-126.684" r="3.762"/>
	<circle cx="-174.243" cy="-171.649" r="3.804"/>
	<g>
		<path d="M-230.228-99.771h-7.305v21.651h-1.225v-21.651h-7.348v-1.225h15.877V-99.771z"/>
		<path d="M-206.446-101.04v19.158v1.225v2.581h-1.225v-2.581h-13.297v2.581h-1.227v-2.581v-1.225v-19.158h1.227v19.158h13.297
			v-19.158H-206.446z"/>
		<path d="M-176.037-89.58c0,6.343-5.119,11.504-11.461,11.504c-6.344,0-11.461-5.161-11.461-11.504
			c0-6.299,5.117-11.46,11.461-11.46C-181.156-101.04-176.037-95.879-176.037-89.58z M-177.262-89.58
			c0-5.644-4.594-10.235-10.236-10.235s-10.236,4.592-10.236,10.235c0,5.686,4.594,10.279,10.236,10.279
			S-177.262-83.895-177.262-89.58z"/>
		<path d="M-129.309-89.448h5.73v0.523v0.699v2.365v2.449v0.218c-2.057,3.062-5.555,5.117-9.535,5.117
			c-6.342,0-11.459-5.117-11.459-11.46c0-6.299,5.117-11.416,11.459-11.416c2.711,0,5.205,0.963,7.174,2.536l-0.83,0.919
			c-0.701-0.613-1.533-1.092-2.408-1.444c-1.225-0.522-2.58-0.786-3.936-0.786c-1.398,0-2.754,0.264-3.98,0.786
			c-1.225,0.525-2.318,1.269-3.279,2.188c-0.918,0.963-1.664,2.056-2.188,3.238c-0.525,1.267-0.787,2.623-0.787,3.979
			c0,1.4,0.262,2.711,0.787,3.981c0.523,1.225,1.27,2.317,2.188,3.235c0.961,0.963,2.055,1.706,3.279,2.231
			c1.227,0.523,2.582,0.787,3.98,0.787c1.355,0,2.711-0.264,3.936-0.787c1.227-0.525,2.318-1.269,3.283-2.231
			c0.393-0.393,0.742-0.83,1.092-1.268v-4.639h-4.506V-89.448z"/>
		<polygon points="-159.824,-100.952 -159.824,-100.996 -161.137,-100.996 -161.137,-100.952 -169.928,-78.076 -168.615,-78.076 
			-160.48,-99.247 -152.344,-78.076 -151.031,-78.076 		"/>
	</g>
	<g>
		<path d="M-244.62-73.548l-1.484,3.298h0.701l0.316-0.721h1.439l0.32,0.721h0.695l-1.484-3.298H-244.62z M-244.823-71.573
			l0.455-1.019l0.451,1.019H-244.823z"/>
		<path d="M-231.013-70.949c-0.891,0.24-1.441,0.21-1.803-0.144c-0.199-0.196-0.303-0.465-0.303-0.8c0-0.331,0.1-0.588,0.303-0.782
			c0.336-0.326,0.857-0.394,1.744-0.164l0.164,0.043l0.117-0.598l-0.139-0.042c-0.34-0.103-0.693-0.155-1.049-0.155
			c-0.539,0-0.977,0.157-1.301,0.468c-0.324,0.313-0.488,0.729-0.488,1.234c0,0.509,0.162,0.925,0.482,1.235
			c0.322,0.31,0.752,0.468,1.281,0.468c0.357,0,0.738-0.063,1.137-0.187l0.141-0.044l-0.123-0.578L-231.013-70.949z"/>
		<path d="M-225.337-73.548l-1.484,3.298h0.703l0.316-0.721h1.438l0.322,0.721h0.697l-1.486-3.298H-225.337z M-225.538-71.573
			l0.455-1.019l0.451,1.019H-225.538z"/>
		<polygon points="-219.968,-72.92 -218.8,-72.92 -218.8,-70.25 -218.171,-70.25 -218.171,-72.92 -217.003,-72.92 -217.003,-73.524 
			-219.968,-73.524 		"/>
		<polygon points="-213.019,-70.25 -210.644,-70.25 -210.644,-70.855 -212.388,-70.855 -212.388,-71.583 -210.827,-71.583 
			-210.827,-72.192 -212.388,-72.192 -212.388,-72.92 -210.644,-72.92 -210.644,-73.524 -213.019,-73.524 		"/>
		<path d="M-203.901-72.452c0-0.68-0.5-1.103-1.303-1.103c-0.195,0-0.525,0.007-0.979,0.031l-0.154,0.007v3.267h0.631v-1.064h0.428
			c0.041,0,0.09-0.002,0.152-0.005l0.783,1.069h0.774l-0.919-1.238C-204.112-71.682-203.901-72.023-203.901-72.452z
			 M-204.528-72.452c0,0.34-0.242,0.541-0.648,0.541h-0.529v-1.03c0.184-0.006,0.352-0.009,0.512-0.009
			C-204.753-72.95-204.528-72.783-204.528-72.452z"/>
		<rect x="-199.582" y="-73.524" width="0.629" height="3.274"/>
		<polygon points="-192.293,-71.376 -193.918,-73.462 -193.967,-73.524 -194.508,-73.524 -194.508,-70.25 -193.877,-70.25 
			-193.877,-72.389 -192.215,-70.25 -191.662,-70.25 -191.662,-73.524 -192.293,-73.524 		"/>
		<path d="M-185.945-71.573h1.18v0.625c-0.301,0.097-0.598,0.145-0.883,0.145c-0.338,0-0.6-0.097-0.799-0.297
			c-0.199-0.197-0.295-0.456-0.295-0.792c0-0.33,0.098-0.587,0.299-0.784c0.357-0.358,0.988-0.356,1.748-0.166l0.16,0.04l0.135-0.59
			l-0.146-0.043c-0.346-0.103-0.717-0.155-1.102-0.155c-0.51,0-0.932,0.16-1.256,0.473c-0.32,0.311-0.482,0.722-0.482,1.226
			c0,0.507,0.16,0.923,0.479,1.235c0.322,0.313,0.746,0.472,1.26,0.472c0.459,0,0.932-0.105,1.404-0.313l0.096-0.043v-1.642h-1.797
			V-71.573z"/>
		<path d="M-173.684-73.56c-0.316,0-0.656,0.013-1.01,0.036l-0.15,0.01v3.264h0.631v-1.002h0.529c0.379,0,0.695-0.104,0.941-0.311
			c0.25-0.216,0.379-0.5,0.379-0.842c0-0.356-0.127-0.643-0.375-0.853C-172.98-73.46-173.291-73.56-173.684-73.56z M-173.654-71.855
			h-0.559v-1.084c0.182-0.008,0.367-0.011,0.559-0.011c0.199,0,0.664,0.054,0.664,0.551c0,0.162-0.057,0.288-0.176,0.389
			C-173.287-71.905-173.447-71.855-173.654-71.855z"/>
		<polygon points="-167.623,-73.524 -168.256,-73.524 -168.256,-70.25 -165.977,-70.25 -165.977,-70.851 -167.623,-70.851 		"/>
		<path d="M-160.668-73.548l-1.486,3.298h0.701l0.316-0.721h1.439l0.32,0.721h0.697l-1.486-3.298H-160.668z M-160.873-71.573
			l0.455-1.019l0.451,1.019H-160.873z"/>
		<polygon points="-155.303,-72.92 -154.137,-72.92 -154.137,-70.25 -153.504,-70.25 -153.504,-72.92 -152.338,-72.92 
			-152.338,-73.524 -155.303,-73.524 		"/>
		<polygon points="-148.354,-70.25 -147.723,-70.25 -147.723,-71.477 -146.207,-71.477 -146.207,-72.089 -147.723,-72.089 
			-147.723,-72.92 -146.029,-72.92 -146.029,-73.524 -148.354,-73.524 		"/>
		<path d="M-140.316-73.591c-0.504,0-0.92,0.16-1.236,0.474c-0.316,0.31-0.479,0.722-0.479,1.229c0,0.506,0.162,0.92,0.477,1.23
			c0.318,0.313,0.734,0.473,1.238,0.473c0.498,0,0.914-0.159,1.234-0.473c0.314-0.312,0.477-0.726,0.477-1.23
			c0-0.506-0.162-0.918-0.477-1.228C-139.402-73.431-139.816-73.591-140.316-73.591z M-140.32-72.976
			c0.322,0,0.574,0.097,0.773,0.298c0.199,0.199,0.297,0.458,0.297,0.789c0,0.336-0.096,0.596-0.297,0.794
			c-0.199,0.202-0.453,0.3-0.773,0.3s-0.574-0.098-0.775-0.3c-0.197-0.199-0.293-0.459-0.293-0.794c0-0.33,0.096-0.588,0.293-0.788
			C-140.895-72.879-140.643-72.976-140.32-72.976z"/>
		<path d="M-131.902-72.452c0-0.68-0.498-1.103-1.301-1.103c-0.199,0-0.527,0.007-0.982,0.031l-0.154,0.007v3.267h0.633v-1.064h0.43
			c0.039,0,0.09-0.002,0.15-0.005l0.783,1.069h0.773l-0.918-1.238C-132.113-71.682-131.902-72.023-131.902-72.452z M-132.527-72.452
			c0,0.334-0.25,0.541-0.65,0.541h-0.529v-1.03c0.184-0.006,0.352-0.009,0.51-0.009C-132.754-72.95-132.527-72.783-132.527-72.452z"
			/>
		<polygon points="-124.18,-73.524 -124.73,-73.524 -125.813,-71.168 -126.895,-73.524 -127.443,-73.524 -127.635,-70.25 
			-127.008,-70.25 -126.902,-72.05 -126.053,-70.25 -125.568,-70.25 -124.725,-72.05 -124.615,-70.25 -123.986,-70.25 		"/>
	</g>
</g>
<g>
	<path d="M-159.867,102.266l-0.099-2.36c-0.013-0.36-0.026-0.709-0.044-1.042l-1.592-37.485l-34.545,21.945l31.255,16.32
		c0.992,17.271-6.604,29.808-14.758,38.17c0.272,0.887,0.429,1.821,0.474,2.787c16.09-12.688,19.085-28.753,19.232-38.378
		L-159.867,102.266z"/>
	<path d="M-139.946,46.938l-0.317,0.264v-0.264l-17.538,12.169v15.484l12.603-8.394c19.541,75.666-45.046,124.423-45.046,124.423
		C-98.183,127.493-139.946,46.938-139.946,46.938z"/>
	<path d="M-235.342,66.38l15.153,10.091l-1.096,25.795l36.283-18.942l-55.545-36.386c0,0-41.764,80.556,50.301,143.683
		C-190.245,190.62-254.73,141.944-235.342,66.38z"/>
	<circle cx="-190.611" cy="112.014" r="8.61"/>
	<circle cx="-190.611" cy="141.155" r="8.61"/>
	<path d="M-149.035,38.231c0,4.808-3.894,8.706-8.704,8.706c-4.806,0-8.709-3.898-8.709-8.706c0-4.809,3.903-8.707,8.709-8.707
		C-152.929,29.524-149.035,33.423-149.035,38.231z"/>
	<g>
		<path d="M-285.886,202.755h-16.721v49.559h-2.803v-49.559h-16.818v-2.803h36.342V202.755z"/>
		<path d="M-231.452,199.852v43.852v2.803v5.908h-2.804v-5.908h-30.436v5.908h-2.808v-5.908v-2.803v-43.852h2.808v43.852h30.436
			v-43.852H-231.452z"/>
		<path d="M-161.848,226.082c0,14.519-11.718,26.332-26.233,26.332c-14.521,0-26.233-11.813-26.233-26.332
			c0-14.417,11.713-26.23,26.233-26.23C-173.565,199.852-161.848,211.665-161.848,226.082z M-164.65,226.082
			c0-12.917-10.515-23.428-23.431-23.428s-23.431,10.511-23.431,23.428c0,13.015,10.515,23.529,23.431,23.529
			S-164.65,239.097-164.65,226.082z"/>
		<path d="M-54.89,226.384h13.117v1.198v1.601v5.414v5.606v0.498c-4.707,7.008-12.715,11.713-21.825,11.713
			c-14.517,0-26.229-11.713-26.229-26.231c0-14.417,11.713-26.13,26.229-26.13c6.205,0,11.914,2.204,16.42,5.805l-1.899,2.104
			c-1.605-1.403-3.51-2.499-5.513-3.306c-2.803-1.196-5.905-1.8-9.008-1.8c-3.201,0-6.304,0.604-9.111,1.8
			c-2.803,1.202-5.307,2.903-7.506,5.007c-2.102,2.204-3.809,4.705-5.007,7.412c-1.203,2.899-1.802,6.004-1.802,9.108
			c0,3.206,0.599,6.206,1.802,9.113c1.198,2.804,2.905,5.305,5.007,7.406c2.199,2.204,4.703,3.904,7.506,5.107
			c2.808,1.198,5.91,1.802,9.111,1.802c3.103,0,6.205-0.604,9.008-1.802c2.808-1.203,5.307-2.903,7.516-5.107
			c0.898-0.898,1.698-1.9,2.499-2.901v-10.618H-54.89V226.384z"/>
		<polygon points="-124.737,200.053 -124.737,199.952 -127.741,199.952 -127.741,200.053 -147.863,252.414 -144.859,252.414 
			-126.239,203.955 -107.615,252.414 -104.611,252.414 		"/>
	</g>
	<g>
		<path d="M-318.83,262.779l-3.397,7.549h1.604l0.725-1.65h3.295l0.733,1.65h1.591l-3.397-7.549H-318.83z M-319.295,267.299
			l1.042-2.331l1.032,2.331H-319.295z"/>
		<path d="M-287.684,268.728c-2.038,0.55-3.299,0.48-4.126-0.329c-0.456-0.449-0.693-1.063-0.693-1.83
			c0-0.758,0.229-1.346,0.693-1.791c0.769-0.746,1.963-0.9,3.992-0.375l0.375,0.098l0.269-1.367l-0.317-0.097
			c-0.777-0.234-1.587-0.355-2.4-0.355c-1.234,0-2.235,0.36-2.978,1.071c-0.742,0.717-1.118,1.669-1.118,2.825
			c0,1.164,0.371,2.116,1.104,2.827c0.738,0.709,1.722,1.071,2.933,1.071c0.818,0,1.69-0.146,2.603-0.427l0.321-0.101l-0.281-1.324
			L-287.684,268.728z"/>
		<path d="M-274.691,262.779l-3.398,7.549h1.609l0.725-1.65h3.29l0.738,1.65h1.596l-3.402-7.549H-274.691z M-275.152,267.299
			l1.042-2.331l1.032,2.331H-275.152z"/>
		<polygon points="-262.402,264.217 -259.729,264.217 -259.729,270.328 -258.289,270.328 -258.289,264.217 -255.616,264.217 
			-255.616,262.833 -262.402,262.833 		"/>
		<polygon points="-246.496,270.328 -241.06,270.328 -241.06,268.941 -245.052,268.941 -245.052,267.276 -241.479,267.276 
			-241.479,265.882 -245.052,265.882 -245.052,264.217 -241.06,264.217 -241.06,262.833 -246.496,262.833 		"/>
		<path d="M-225.627,265.287c0-1.556-1.145-2.523-2.982-2.523c-0.447,0-1.202,0.016-2.239,0.071l-0.354,0.016v7.478h1.444v-2.437
			h0.979c0.094,0,0.206-0.005,0.349-0.012l1.793,2.448h1.772l-2.104-2.835C-226.11,267.051-225.627,266.269-225.627,265.287z
			 M-227.063,265.287c0,0.778-0.555,1.238-1.484,1.238h-1.211v-2.358c0.42-0.013,0.805-0.02,1.171-0.02
			C-227.576,264.147-227.063,264.529-227.063,265.287z"/>
		<rect x="-215.74" y="262.833" width="1.439" height="7.495"/>
		<polygon points="-199.057,267.75 -202.776,262.976 -202.888,262.833 -204.126,262.833 -204.126,270.328 -202.682,270.328 
			-202.682,265.433 -198.878,270.328 -197.612,270.328 -197.612,262.833 -199.057,262.833 		"/>
		<path d="M-184.527,267.299h2.701v1.431c-0.688,0.222-1.369,0.331-2.021,0.331c-0.773,0-1.372-0.222-1.828-0.68
			c-0.456-0.451-0.676-1.044-0.676-1.813c0-0.756,0.224-1.344,0.685-1.795c0.818-0.82,2.262-0.816,4.001-0.38l0.367,0.091
			l0.309-1.35l-0.336-0.099c-0.791-0.234-1.641-0.355-2.521-0.355c-1.167,0-2.133,0.367-2.874,1.082
			c-0.733,0.711-1.104,1.652-1.104,2.806c0,1.16,0.366,2.112,1.095,2.827c0.738,0.716,1.708,1.08,2.884,1.08
			c1.051,0,2.133-0.242,3.215-0.716l0.219-0.098v-3.758h-4.113V267.299z"/>
		<path d="M-156.461,262.752c-0.724,0-1.502,0.029-2.311,0.083l-0.345,0.022v7.471h1.444v-2.294h1.211
			c0.867,0,1.592-0.239,2.155-0.711c0.572-0.494,0.867-1.145,0.867-1.927c0-0.815-0.291-1.471-0.858-1.951
			C-154.852,262.98-155.562,262.752-156.461,262.752z M-156.394,266.653h-1.278v-2.481c0.415-0.018,0.84-0.024,1.278-0.024
			c0.456,0,1.52,0.123,1.52,1.261c0,0.371-0.129,0.659-0.402,0.89C-155.553,266.539-155.92,266.653-156.394,266.653z"/>
		<polygon points="-142.589,262.833 -144.037,262.833 -144.037,270.328 -138.819,270.328 -138.819,268.953 -142.589,268.953 		"/>
		<path d="M-126.669,262.779l-3.402,7.549h1.605l0.725-1.65h3.294l0.733,1.65h1.597l-3.402-7.549H-126.669z M-127.138,267.299
			l1.041-2.331l1.033,2.331H-127.138z"/>
		<polygon points="-114.388,264.217 -111.719,264.217 -111.719,270.328 -110.271,270.328 -110.271,264.217 -107.602,264.217 
			-107.602,262.833 -114.388,262.833 		"/>
		<polygon points="-98.481,270.328 -97.038,270.328 -97.038,267.521 -93.568,267.521 -93.568,266.119 -97.038,266.119 
			-97.038,264.217 -93.162,264.217 -93.162,262.833 -98.481,262.833 		"/>
		<path d="M-80.085,262.681c-1.153,0-2.106,0.367-2.83,1.084c-0.725,0.709-1.096,1.652-1.096,2.813c0,1.157,0.371,2.105,1.091,2.816
			c0.729,0.715,1.682,1.082,2.835,1.082c1.14,0,2.092-0.364,2.825-1.082c0.72-0.713,1.091-1.661,1.091-2.816
			c0-1.158-0.371-2.102-1.091-2.81C-77.993,263.048-78.94,262.681-80.085,262.681z M-80.095,264.089
			c0.738,0,1.314,0.222,1.771,0.682c0.456,0.456,0.68,1.049,0.68,1.807c0,0.769-0.219,1.363-0.68,1.817
			c-0.456,0.463-1.037,0.686-1.771,0.686c-0.732,0-1.313-0.223-1.774-0.686c-0.451-0.456-0.671-1.051-0.671-1.817
			c0-0.756,0.22-1.346,0.671-1.804C-81.408,264.311-80.832,264.089-80.095,264.089z"/>
		<path d="M-60.826,265.287c0-1.556-1.14-2.523-2.978-2.523c-0.456,0-1.207,0.016-2.248,0.071l-0.354,0.016v7.478h1.448v-2.437
			h0.983c0.09,0,0.206-0.005,0.345-0.012l1.792,2.448h1.771l-2.101-2.835C-61.309,267.051-60.826,266.269-60.826,265.287z
			 M-62.257,265.287c0,0.765-0.572,1.238-1.488,1.238h-1.212v-2.358c0.421-0.013,0.805-0.02,1.167-0.02
			C-62.775,264.147-62.257,264.529-62.257,265.287z"/>
		<polygon points="-43.149,262.833 -44.41,262.833 -46.887,268.227 -49.363,262.833 -50.62,262.833 -51.058,270.328 
			-49.623,270.328 -49.382,266.208 -47.437,270.328 -46.328,270.328 -44.396,266.208 -44.146,270.328 -42.707,270.328 		"/>
	</g>
</g>
<g>
	<path fill="#FFFFFF" d="M172.133,102.266l-0.099-2.36c-0.013-0.36-0.026-0.709-0.044-1.042l-1.592-37.485l-34.545,21.945
		l31.255,16.32c0.992,17.271-6.604,29.808-14.758,38.17c0.272,0.887,0.429,1.821,0.474,2.787
		c16.09-12.688,19.085-28.753,19.232-38.378L172.133,102.266z"/>
	<path fill="#FFFFFF" d="M192.054,46.938l-0.317,0.264v-0.264l-17.538,12.169v15.484l12.603-8.394
		c19.541,75.666-45.046,124.423-45.046,124.423C233.817,127.493,192.054,46.938,192.054,46.938z"/>
	<path fill="#FFFFFF" d="M96.658,66.38l15.153,10.091l-1.096,25.795l36.283-18.942L91.454,46.938c0,0-41.764,80.556,50.301,143.683
		C141.755,190.62,77.27,141.944,96.658,66.38z"/>
	<circle fill="#FFFFFF" cx="141.389" cy="112.014" r="8.61"/>
	<circle fill="#FFFFFF" cx="141.389" cy="141.155" r="8.61"/>
	<path fill="#FFFFFF" d="M182.965,38.231c0,4.808-3.894,8.706-8.704,8.706c-4.806,0-8.709-3.898-8.709-8.706
		c0-4.809,3.903-8.707,8.709-8.707C179.071,29.524,182.965,33.423,182.965,38.231z"/>
	<g>
		<path fill="#FFFFFF" d="M46.114,202.755H29.394v49.559h-2.803v-49.559H9.772v-2.803h36.342V202.755z"/>
		<path fill="#FFFFFF" d="M100.548,199.852v43.852v2.803v5.908h-2.804v-5.908H67.309v5.908h-2.808v-5.908v-2.803v-43.852h2.808
			v43.852h30.436v-43.852H100.548z"/>
		<path fill="#FFFFFF" d="M170.152,226.082c0,14.519-11.718,26.332-26.233,26.332c-14.521,0-26.233-11.813-26.233-26.332
			c0-14.417,11.713-26.23,26.233-26.23C158.435,199.852,170.152,211.665,170.152,226.082z M167.35,226.082
			c0-12.917-10.515-23.428-23.431-23.428s-23.431,10.511-23.431,23.428c0,13.015,10.515,23.529,23.431,23.529
			S167.35,239.097,167.35,226.082z"/>
		<path fill="#FFFFFF" d="M277.11,226.384h13.117v1.198v1.601v5.414v5.606v0.498c-4.707,7.008-12.715,11.713-21.825,11.713
			c-14.517,0-26.229-11.713-26.229-26.231c0-14.417,11.713-26.13,26.229-26.13c6.205,0,11.914,2.204,16.42,5.805l-1.899,2.104
			c-1.605-1.403-3.51-2.499-5.513-3.306c-2.803-1.196-5.905-1.8-9.008-1.8c-3.201,0-6.304,0.604-9.111,1.8
			c-2.803,1.202-5.307,2.903-7.506,5.007c-2.102,2.204-3.809,4.705-5.007,7.412c-1.203,2.899-1.802,6.004-1.802,9.108
			c0,3.206,0.599,6.206,1.802,9.113c1.198,2.804,2.905,5.305,5.007,7.406c2.199,2.204,4.703,3.904,7.506,5.107
			c2.808,1.198,5.91,1.802,9.111,1.802c3.103,0,6.205-0.604,9.008-1.802c2.808-1.203,5.307-2.903,7.516-5.107
			c0.898-0.898,1.698-1.9,2.499-2.901v-10.618H277.11V226.384z"/>
		<polygon fill="#FFFFFF" points="207.263,200.053 207.263,199.952 204.259,199.952 204.259,200.053 184.137,252.414 
			187.141,252.414 205.761,203.955 224.385,252.414 227.389,252.414 		"/>
	</g>
	<g>
		<path fill="#FFFFFF" d="M13.17,262.779l-3.397,7.549h1.604l0.725-1.65h3.295l0.733,1.65h1.591l-3.397-7.549H13.17z
			 M12.705,267.299l1.042-2.331l1.032,2.331H12.705z"/>
		<path fill="#FFFFFF" d="M44.316,268.728c-2.038,0.55-3.299,0.48-4.126-0.329c-0.456-0.449-0.693-1.063-0.693-1.83
			c0-0.758,0.229-1.346,0.693-1.791c0.769-0.746,1.963-0.9,3.992-0.375l0.375,0.098l0.269-1.367l-0.317-0.097
			c-0.777-0.234-1.587-0.355-2.4-0.355c-1.234,0-2.235,0.36-2.978,1.071c-0.742,0.717-1.118,1.669-1.118,2.825
			c0,1.164,0.371,2.116,1.104,2.827c0.738,0.709,1.722,1.071,2.933,1.071c0.818,0,1.69-0.146,2.603-0.427l0.321-0.101l-0.281-1.324
			L44.316,268.728z"/>
		<path fill="#FFFFFF" d="M57.309,262.779l-3.398,7.549h1.609l0.725-1.65h3.29l0.738,1.65h1.596l-3.402-7.549H57.309z
			 M56.848,267.299l1.042-2.331l1.032,2.331H56.848z"/>
		<polygon fill="#FFFFFF" points="69.598,264.217 72.271,264.217 72.271,270.328 73.711,270.328 73.711,264.217 76.384,264.217 
			76.384,262.833 69.598,262.833 		"/>
		<polygon fill="#FFFFFF" points="85.504,270.328 90.94,270.328 90.94,268.941 86.948,268.941 86.948,267.276 90.521,267.276 
			90.521,265.882 86.948,265.882 86.948,264.217 90.94,264.217 90.94,262.833 85.504,262.833 		"/>
		<path fill="#FFFFFF" d="M106.373,265.287c0-1.556-1.145-2.523-2.982-2.523c-0.447,0-1.202,0.016-2.239,0.071l-0.354,0.016v7.478
			h1.444v-2.437h0.979c0.094,0,0.206-0.005,0.349-0.012l1.793,2.448h1.772l-2.104-2.835
			C105.89,267.051,106.373,266.269,106.373,265.287z M104.938,265.287c0,0.778-0.555,1.238-1.484,1.238h-1.211v-2.358
			c0.42-0.013,0.805-0.02,1.171-0.02C104.424,264.147,104.938,264.529,104.938,265.287z"/>
		<rect x="116.26" y="262.833" fill="#FFFFFF" width="1.439" height="7.495"/>
		<polygon fill="#FFFFFF" points="132.943,267.75 129.224,262.976 129.112,262.833 127.874,262.833 127.874,270.328 
			129.318,270.328 129.318,265.433 133.122,270.328 134.388,270.328 134.388,262.833 132.943,262.833 		"/>
		<path fill="#FFFFFF" d="M147.473,267.299h2.701v1.431c-0.688,0.222-1.369,0.331-2.021,0.331c-0.773,0-1.372-0.222-1.828-0.68
			c-0.456-0.451-0.676-1.044-0.676-1.813c0-0.756,0.224-1.344,0.685-1.795c0.818-0.82,2.262-0.816,4.001-0.38l0.367,0.091
			l0.309-1.35l-0.336-0.099c-0.791-0.234-1.641-0.355-2.521-0.355c-1.167,0-2.133,0.367-2.874,1.082
			c-0.733,0.711-1.104,1.652-1.104,2.806c0,1.16,0.366,2.112,1.095,2.827c0.738,0.716,1.708,1.08,2.884,1.08
			c1.051,0,2.133-0.242,3.215-0.716l0.219-0.098v-3.758h-4.113V267.299z"/>
		<path fill="#FFFFFF" d="M175.539,262.752c-0.724,0-1.502,0.029-2.311,0.083l-0.345,0.022v7.471h1.444v-2.294h1.211
			c0.867,0,1.592-0.239,2.155-0.711c0.572-0.494,0.867-1.145,0.867-1.927c0-0.815-0.291-1.471-0.858-1.951
			C177.148,262.98,176.438,262.752,175.539,262.752z M175.606,266.653h-1.278v-2.481c0.415-0.018,0.84-0.024,1.278-0.024
			c0.456,0,1.52,0.123,1.52,1.261c0,0.371-0.129,0.659-0.402,0.89C176.447,266.539,176.08,266.653,175.606,266.653z"/>
		<polygon fill="#FFFFFF" points="189.411,262.833 187.963,262.833 187.963,270.328 193.181,270.328 193.181,268.953 
			189.411,268.953 		"/>
		<path fill="#FFFFFF" d="M205.331,262.779l-3.402,7.549h1.605l0.725-1.65h3.294l0.733,1.65h1.597l-3.402-7.549H205.331z
			 M204.862,267.299l1.041-2.331l1.033,2.331H204.862z"/>
		<polygon fill="#FFFFFF" points="217.612,264.217 220.281,264.217 220.281,270.328 221.729,270.328 221.729,264.217 
			224.398,264.217 224.398,262.833 217.612,262.833 		"/>
		<polygon fill="#FFFFFF" points="233.519,270.328 234.962,270.328 234.962,267.521 238.432,267.521 238.432,266.119 
			234.962,266.119 234.962,264.217 238.838,264.217 238.838,262.833 233.519,262.833 		"/>
		<path fill="#FFFFFF" d="M251.915,262.681c-1.153,0-2.106,0.367-2.83,1.084c-0.725,0.709-1.096,1.652-1.096,2.813
			c0,1.157,0.371,2.105,1.091,2.816c0.729,0.715,1.682,1.082,2.835,1.082c1.14,0,2.092-0.364,2.825-1.082
			c0.72-0.713,1.091-1.661,1.091-2.816c0-1.158-0.371-2.102-1.091-2.81C254.007,263.048,253.06,262.681,251.915,262.681z
			 M251.905,264.089c0.738,0,1.314,0.222,1.771,0.682c0.456,0.456,0.68,1.049,0.68,1.807c0,0.769-0.219,1.363-0.68,1.817
			c-0.456,0.463-1.037,0.686-1.771,0.686c-0.732,0-1.313-0.223-1.774-0.686c-0.451-0.456-0.671-1.051-0.671-1.817
			c0-0.756,0.22-1.346,0.671-1.804C250.592,264.311,251.168,264.089,251.905,264.089z"/>
		<path fill="#FFFFFF" d="M271.174,265.287c0-1.556-1.14-2.523-2.978-2.523c-0.456,0-1.207,0.016-2.248,0.071l-0.354,0.016v7.478
			h1.448v-2.437h0.983c0.09,0,0.206-0.005,0.345-0.012l1.792,2.448h1.771l-2.101-2.835
			C270.691,267.051,271.174,266.269,271.174,265.287z M269.743,265.287c0,0.765-0.572,1.238-1.488,1.238h-1.212v-2.358
			c0.421-0.013,0.805-0.02,1.167-0.02C269.225,264.147,269.743,264.529,269.743,265.287z"/>
		<polygon fill="#FFFFFF" points="288.851,262.833 287.59,262.833 285.113,268.227 282.637,262.833 281.38,262.833 280.942,270.328 
			282.377,270.328 282.618,266.208 284.563,270.328 285.672,270.328 287.604,266.208 287.854,270.328 289.293,270.328 		"/>
	</g>
</g>
<g>
	<path fill="#FFFFFF" d="M0.162-142.341l-0.043-1.031c-0.006-0.156-0.012-0.309-0.02-0.455l-0.695-16.377l-15.092,9.588
		l13.654,7.131c0.434,7.545-2.885,13.021-6.447,16.675c0.119,0.387,0.188,0.795,0.207,1.217c7.029-5.542,8.338-12.56,8.402-16.765
		L0.162-142.341z"/>
	<path fill="#FFFFFF" d="M8.865-166.513l-0.139,0.115v-0.115l-7.662,5.316v6.766l5.506-3.668
		c8.537,33.058-19.68,54.359-19.68,54.359C27.111-131.319,8.865-166.513,8.865-166.513z"/>
	<path fill="#FFFFFF" d="M-32.813-158.019l6.621,4.408l-0.479,11.27l15.852-8.275l-24.268-15.896c0,0-18.246,35.193,21.977,62.773
		C-13.109-103.739-41.282-125.006-32.813-158.019z"/>
	<circle fill="#FFFFFF" cx="-13.27" cy="-138.081" r="3.762"/>
	<circle fill="#FFFFFF" cx="-13.27" cy="-125.352" r="3.762"/>
	<circle fill="#FFFFFF" cx="1.091" cy="-170.317" r="3.804"/>
	<g>
		<path fill="#FFFFFF" d="M-54.895-98.438h-7.305v21.652h-1.225v-21.652h-7.348v-1.225h15.877V-98.438z"/>
		<path fill="#FFFFFF" d="M-31.113-99.706v19.158v1.225v2.58h-1.225v-2.58h-13.297v2.58h-1.226v-2.58v-1.225v-19.158h1.226v19.158
			h13.297v-19.158H-31.113z"/>
		<path fill="#FFFFFF" d="M-0.703-88.247c0,6.344-5.119,11.504-11.461,11.504c-6.344,0-11.461-5.16-11.461-11.504
			c0-6.299,5.117-11.459,11.461-11.459C-5.822-99.706-0.703-94.546-0.703-88.247z M-1.928-88.247
			c0-5.643-4.594-10.234-10.236-10.234S-22.4-93.89-22.4-88.247c0,5.686,4.594,10.279,10.236,10.279S-1.928-82.562-1.928-88.247z"/>
		<path fill="#FFFFFF" d="M46.025-88.114h5.73v0.523v0.699v2.365v2.449v0.217c-2.057,3.063-5.555,5.117-9.535,5.117
			c-6.342,0-11.459-5.117-11.459-11.459c0-6.299,5.117-11.416,11.459-11.416c2.711,0,5.205,0.963,7.174,2.535l-0.83,0.92
			c-0.701-0.613-1.533-1.092-2.408-1.445c-1.225-0.521-2.58-0.785-3.936-0.785c-1.398,0-2.754,0.264-3.98,0.785
			c-1.225,0.525-2.318,1.27-3.279,2.188c-0.918,0.963-1.664,2.057-2.188,3.238c-0.525,1.268-0.787,2.623-0.787,3.98
			c0,1.4,0.262,2.711,0.787,3.98c0.523,1.225,1.27,2.318,2.188,3.236c0.961,0.963,2.055,1.705,3.279,2.23
			c1.227,0.523,2.582,0.787,3.98,0.787c1.355,0,2.711-0.264,3.936-0.787c1.227-0.525,2.318-1.268,3.283-2.23
			c0.393-0.393,0.742-0.83,1.092-1.268v-4.639h-4.506V-88.114z"/>
		<polygon fill="#FFFFFF" points="15.51,-99.618 15.51,-99.663 14.197,-99.663 14.197,-99.618 5.406,-76.743 6.719,-76.743 
			14.854,-97.913 22.99,-76.743 24.303,-76.743 		"/>
	</g>
	<g>
		<path fill="#FFFFFF" d="M-69.287-72.214l-1.484,3.297h0.701l0.316-0.721h1.439l0.32,0.721h0.696l-1.485-3.297H-69.287z
			 M-69.49-70.239l0.455-1.02l0.451,1.02H-69.49z"/>
		<path fill="#FFFFFF" d="M-55.68-69.616c-0.89,0.24-1.441,0.211-1.803-0.143c-0.199-0.197-0.302-0.465-0.302-0.801
			c0-0.33,0.099-0.588,0.302-0.781c0.336-0.326,0.857-0.395,1.744-0.164l0.164,0.043l0.118-0.598l-0.14-0.043
			c-0.34-0.102-0.692-0.154-1.049-0.154c-0.539,0-0.977,0.156-1.301,0.467c-0.324,0.314-0.488,0.73-0.488,1.234
			c0,0.51,0.162,0.926,0.483,1.236c0.321,0.309,0.751,0.467,1.28,0.467c0.357,0,0.739-0.063,1.137-0.186l0.141-0.045l-0.123-0.578
			L-55.68-69.616z"/>
		<path fill="#FFFFFF" d="M-50.003-72.214l-1.485,3.297h0.704l0.315-0.721h1.438l0.321,0.721h0.697l-1.486-3.297H-50.003z
			 M-50.204-70.239l0.454-1.02l0.451,1.02H-50.204z"/>
		<polygon fill="#FFFFFF" points="-44.635,-71.587 -43.467,-71.587 -43.467,-68.917 -42.838,-68.917 -42.838,-71.587 
			-41.67,-71.587 -41.67,-72.19 -44.635,-72.19 		"/>
		<polygon fill="#FFFFFF" points="-37.686,-68.917 -35.311,-68.917 -35.311,-69.522 -37.055,-69.522 -37.055,-70.249 
			-35.493,-70.249 -35.493,-70.858 -37.055,-70.858 -37.055,-71.587 -35.311,-71.587 -35.311,-72.19 -37.686,-72.19 		"/>
		<path fill="#FFFFFF" d="M-28.568-71.118c0-0.68-0.499-1.104-1.303-1.104c-0.195,0-0.524,0.008-0.979,0.031l-0.153,0.008v3.266
			h0.63v-1.064h0.429c0.041,0,0.09-0.002,0.151-0.004l0.783,1.068h0.775l-0.92-1.238C-28.779-70.349-28.568-70.69-28.568-71.118z
			 M-29.195-71.118c0,0.34-0.242,0.541-0.648,0.541h-0.529v-1.031c0.184-0.006,0.353-0.008,0.512-0.008
			C-29.419-71.616-29.195-71.45-29.195-71.118z"/>
		<rect x="-24.248" y="-72.19" fill="#FFFFFF" width="0.629" height="3.273"/>
		<polygon fill="#FFFFFF" points="-16.96,-70.042 -18.585,-72.128 -18.633,-72.19 -19.174,-72.19 -19.174,-68.917 -18.543,-68.917 
			-18.543,-71.056 -16.882,-68.917 -16.329,-68.917 -16.329,-72.19 -16.96,-72.19 		"/>
		<path fill="#FFFFFF" d="M-10.611-70.239h1.18v0.625c-0.301,0.096-0.598,0.145-0.883,0.145c-0.338,0-0.6-0.098-0.799-0.297
			c-0.199-0.197-0.295-0.457-0.295-0.793c0-0.33,0.098-0.586,0.299-0.783c0.357-0.359,0.988-0.357,1.748-0.166l0.16,0.039
			l0.135-0.59l-0.146-0.043c-0.346-0.102-0.717-0.154-1.102-0.154c-0.51,0-0.932,0.16-1.256,0.473
			c-0.32,0.311-0.482,0.721-0.482,1.225c0,0.508,0.16,0.924,0.479,1.236c0.322,0.313,0.746,0.471,1.26,0.471
			c0.459,0,0.932-0.105,1.404-0.313l0.096-0.043v-1.641h-1.797V-70.239z"/>
		<path fill="#FFFFFF" d="M1.65-72.226c-0.316,0-0.656,0.012-1.01,0.035l-0.15,0.01v3.264h0.631v-1.002H1.65
			c0.379,0,0.695-0.104,0.941-0.311c0.25-0.215,0.379-0.5,0.379-0.842c0-0.355-0.127-0.643-0.375-0.852
			C2.354-72.126,2.043-72.226,1.65-72.226z M1.68-70.522H1.121v-1.084c0.182-0.008,0.367-0.01,0.559-0.01
			c0.199,0,0.664,0.053,0.664,0.551c0,0.162-0.057,0.287-0.176,0.389C2.047-70.571,1.887-70.522,1.68-70.522z"/>
		<polygon fill="#FFFFFF" points="7.711,-72.19 7.078,-72.19 7.078,-68.917 9.357,-68.917 9.357,-69.517 7.711,-69.517 		"/>
		<path fill="#FFFFFF" d="M14.666-72.214l-1.486,3.297h0.701l0.316-0.721h1.439l0.32,0.721h0.697l-1.486-3.297H14.666z
			 M14.461-70.239l0.455-1.02l0.451,1.02H14.461z"/>
		<polygon fill="#FFFFFF" points="20.031,-71.587 21.197,-71.587 21.197,-68.917 21.83,-68.917 21.83,-71.587 22.996,-71.587 
			22.996,-72.19 20.031,-72.19 		"/>
		<polygon fill="#FFFFFF" points="26.98,-68.917 27.611,-68.917 27.611,-70.144 29.127,-70.144 29.127,-70.755 27.611,-70.755 
			27.611,-71.587 29.305,-71.587 29.305,-72.19 26.98,-72.19 		"/>
		<path fill="#FFFFFF" d="M35.018-72.257c-0.504,0-0.92,0.16-1.236,0.473c-0.316,0.311-0.479,0.723-0.479,1.229
			s0.162,0.92,0.477,1.23c0.318,0.313,0.734,0.473,1.238,0.473c0.498,0,0.914-0.158,1.234-0.473c0.314-0.311,0.477-0.725,0.477-1.23
			s-0.162-0.918-0.477-1.227C35.932-72.097,35.518-72.257,35.018-72.257z M35.014-71.642c0.322,0,0.574,0.096,0.773,0.297
			c0.199,0.199,0.297,0.459,0.297,0.789c0,0.336-0.096,0.596-0.297,0.795c-0.199,0.201-0.453,0.299-0.773,0.299
			s-0.574-0.098-0.775-0.299c-0.197-0.199-0.293-0.459-0.293-0.795c0-0.33,0.096-0.588,0.293-0.787
			C34.439-71.546,34.691-71.642,35.014-71.642z"/>
		<path fill="#FFFFFF" d="M43.432-71.118c0-0.68-0.498-1.104-1.301-1.104c-0.199,0-0.527,0.008-0.982,0.031l-0.154,0.008v3.266
			h0.633v-1.064h0.43c0.039,0,0.09-0.002,0.15-0.004l0.783,1.068h0.773l-0.918-1.238C43.221-70.349,43.432-70.69,43.432-71.118z
			 M42.807-71.118c0,0.334-0.25,0.541-0.65,0.541h-0.529v-1.031c0.184-0.006,0.352-0.008,0.51-0.008
			C42.58-71.616,42.807-71.45,42.807-71.118z"/>
		<polygon fill="#FFFFFF" points="51.154,-72.19 50.604,-72.19 49.521,-69.835 48.439,-72.19 47.891,-72.19 47.699,-68.917 
			48.326,-68.917 48.432,-70.716 49.281,-68.917 49.766,-68.917 50.609,-70.716 50.719,-68.917 51.348,-68.917 		"/>
	</g>
</g>
</svg>
