<?xml version="1.0" encoding="utf-8"?>
<!-- Generator: Adobe Illustrator 16.0.0, SVG Export Plug-In . SVG Version: 6.00 Build 0)  -->
<!DOCTYPE svg PUBLIC "-//W3C//DTD SVG 1.1//EN" "http://www.w3.org/Graphics/SVG/1.1/DTD/svg11.dtd">
<svg version="1.1" id="Layer_1" xmlns="http://www.w3.org/2000/svg" xmlns:xlink="http://www.w3.org/1999/xlink" x="0px" y="0px"
	 width="270px" height="117px" viewBox="0 0 270 117" enable-background="new 0 0 270 117" xml:space="preserve">
<path fill="#1C75BC" d="M496.894,44.855c0-0.775-0.269-1.433-0.806-1.971c-0.538-0.538-1.196-0.807-1.972-0.807
	c-0.776,0-1.433,0.269-1.971,0.807c-0.537,0.538-0.805,1.196-0.805,1.971v19.797c-1.972-2.15-4.332-4.016-7.078-5.599
	c-2.748-1.583-5.792-2.434-9.137-2.553c-2.865,0-5.599,0.583-8.197,1.747c-2.596,1.164-4.881,2.731-6.852,4.702
	c-1.971,1.972-3.538,4.271-4.702,6.898c-0.828,1.868-1.347,3.83-1.586,5.878h-0.057c-0.02,0.278-0.012,0.559-0.021,0.838
	c-0.044,0.563-0.084,1.127-0.084,1.704c0,2.927,0.567,5.688,1.702,8.286c0.662,1.518,1.464,2.927,2.402,4.229
	c0.287,0.399,5.396,7.662,7.378,10.332c3.293,4.432,6.739,8.756,10.259,13.305c4.256-5.532,8.325-10.895,12.479-16.199
	c1.409-1.803,2.741-3.65,3.947-5.575c0.293-0.467,2.709-4.187,3.396-5.779c0.918-2.13,1.447-4.426,1.621-6.871
	C496.996,78.597,496.894,44.855,496.894,44.855z M460.436,71.997c0.836-1.97,1.984-3.686,3.449-5.149
	c1.462-1.463,3.18-2.612,5.15-3.45c1.971-0.836,4.061-1.254,6.27-1.254c2.15,0,4.18,0.403,6.093,1.209
	c1.91,0.806,3.582,1.926,5.016,3.359c1.433,1.433,2.581,3.135,3.449,5.105c0.54,1.229,0.917,2.538,1.167,3.907
	c0.15,0.825,0.267,1.667,0.312,2.542c0,2.209-0.42,4.285-1.255,6.226c-0.838,1.941-1.986,3.642-3.449,5.105
	s-3.166,2.613-5.105,3.449c-1.941,0.836-4.016,1.253-6.227,1.253c-2.209,0-4.299-0.417-6.27-1.253
	c-1.971-0.836-3.688-1.986-5.15-3.449c-1.465-1.463-2.613-3.165-3.449-5.105s-1.254-4.017-1.254-6.226
	c0-0.868,0.083-1.711,0.212-2.542C459.594,74.44,459.928,73.194,460.436,71.997z"/>
<path fill="#1C75BC" d="M501.551,77.909c0-2.925,0.552-5.688,1.657-8.286c1.104-2.597,2.627-4.881,4.569-6.853
	c1.938-1.971,4.193-3.522,6.762-4.657c2.566-1.135,5.314-1.732,8.241-1.792c0.955,0,1.716,0.269,2.284,0.806
	c0.567,0.538,0.853,1.195,0.853,1.972c0,0.776-0.285,1.432-0.853,1.969c-0.568,0.538-1.329,0.806-2.284,0.806
	c-2.149,0.06-4.181,0.524-6.091,1.389c-1.912,0.866-3.583,2.016-5.017,3.449c-1.433,1.433-2.553,3.121-3.359,5.061
	c-0.806,1.941-1.209,3.986-1.209,6.135v19.17c0,0.776-0.269,1.434-0.806,1.971c-0.538,0.538-1.195,0.806-1.972,0.806
	s-1.432-0.269-1.97-0.806c-0.537-0.538-0.807-1.195-0.807-1.971V77.909z"/>
<path fill="#1C75BC" d="M544.816,56.5c2.866,0,5.598,0.583,8.195,1.747c2.599,1.164,4.883,2.731,6.853,4.702
	c1.972,1.972,3.538,4.271,4.704,6.898c1.165,2.629,1.747,5.435,1.747,8.42c0,2.927-0.569,5.688-1.702,8.286
	c-1.136,2.598-2.674,4.882-4.615,6.854c-1.94,1.969-4.224,3.523-6.852,4.657c-2.629,1.134-5.464,1.702-8.511,1.702
	c-2.986,0-5.776-0.538-8.375-1.613c-2.597-1.075-4.881-2.567-6.853-4.479c-1.971-1.91-3.523-4.178-4.657-6.808
	c-1.137-2.626-1.702-5.494-1.702-8.599c0-2.985,0.552-5.778,1.657-8.376c1.104-2.597,2.627-4.867,4.568-6.808
	c1.939-1.94,4.239-3.494,6.896-4.657C538.827,57.262,541.71,56.62,544.816,56.5z M528.603,78.268c0,2.209,0.416,4.285,1.254,6.226
	c0.836,1.941,1.984,3.642,3.45,5.105c1.461,1.463,3.163,2.613,5.104,3.449c1.939,0.836,4.015,1.253,6.225,1.253
	s4.301-0.417,6.271-1.253c1.971-0.836,3.686-1.986,5.151-3.449c1.461-1.463,2.61-3.165,3.449-5.105
	c0.834-1.941,1.253-4.017,1.253-6.226c0-2.209-0.419-4.299-1.253-6.271c-0.839-1.97-1.988-3.686-3.449-5.149
	c-1.466-1.463-3.181-2.612-5.151-3.45c-1.971-0.836-4.062-1.254-6.271-1.254s-4.285,0.417-6.225,1.254
	c-1.941,0.838-3.644,1.986-5.104,3.45c-1.466,1.463-2.614,3.179-3.45,5.149C529.019,73.968,528.603,76.059,528.603,78.268z"/>
<path fill="#1C75BC" d="M592.649,99.856c-3.346-0.12-6.391-0.971-9.137-2.553c-2.748-1.581-5.105-3.45-7.077-5.598v21.587
	c0,0.775-0.269,1.433-0.806,1.971s-1.195,0.807-1.972,0.807s-1.432-0.269-1.969-0.807c-0.538-0.538-0.808-1.196-0.808-1.971V78.088
	c0-3.104,0.567-5.97,1.701-8.599c1.136-2.627,2.688-4.896,4.659-6.808c1.971-1.91,4.254-3.405,6.853-4.479
	c2.598-1.075,5.39-1.613,8.376-1.613c3.046,0,5.881,0.568,8.51,1.702c2.628,1.135,4.91,2.687,6.853,4.657
	c1.94,1.972,3.479,4.256,4.613,6.853c1.133,2.598,1.702,5.361,1.702,8.286c0,2.988-0.582,5.793-1.747,8.42
	c-1.164,2.63-2.732,4.927-4.704,6.899c-1.969,1.969-4.254,3.537-6.852,4.702C598.249,99.273,595.517,99.856,592.649,99.856z
	 M576.436,78.088c0.059,2.329,0.538,4.479,1.434,6.451c0.896,1.97,2.062,3.672,3.493,5.105c1.433,1.433,3.104,2.553,5.018,3.359
	c1.909,0.805,3.94,1.208,6.091,1.208c2.208,0,4.3-0.417,6.269-1.253c1.972-0.836,3.688-1.986,5.152-3.45
	c1.462-1.463,2.612-3.18,3.448-5.149c0.837-1.972,1.254-4.062,1.254-6.272c0-2.208-0.417-4.284-1.254-6.225
	c-0.836-1.939-1.986-3.642-3.448-5.105c-1.464-1.463-3.181-2.612-5.152-3.449c-1.969-0.836-4.061-1.254-6.269-1.254
	c-2.21,0-4.285,0.418-6.226,1.254c-1.94,0.837-3.644,1.986-5.105,3.449c-1.464,1.463-2.614,3.166-3.45,5.105
	C576.853,73.804,576.436,75.879,576.436,78.088z"/>
<g>
	<path fill="#D81F26" d="M626.247,46.737c0-1.016,0.357-1.882,1.075-2.599c0.717-0.716,1.581-1.075,2.597-1.075
		c1.015,0,1.881,0.359,2.599,1.075c0.716,0.717,1.073,1.583,1.073,2.599c0,1.015-0.357,1.881-1.073,2.598
		c-0.718,0.717-1.584,1.075-2.599,1.075c-1.016,0-1.88-0.358-2.597-1.075C626.604,48.618,626.247,47.752,626.247,46.737z
		 M627.143,59.187c0-0.775,0.27-1.433,0.807-1.97c0.538-0.538,1.193-0.806,1.97-0.806s1.433,0.269,1.97,0.806
		c0.538,0.537,0.808,1.195,0.808,1.97v37.892c0,0.776-0.27,1.434-0.808,1.971c-0.537,0.538-1.193,0.806-1.97,0.806
		s-1.432-0.269-1.97-0.806c-0.537-0.538-0.807-1.195-0.807-1.971V59.187z"/>
	<path fill="#D81F26" d="M637.624,77.909c0-2.985,0.565-5.791,1.702-8.42c1.133-2.627,2.67-4.911,4.612-6.853
		c1.938-1.939,4.225-3.477,6.853-4.612c2.628-1.135,5.434-1.703,8.42-1.703c2.987,0,5.793,0.567,8.421,1.703
		c2.628,1.135,4.91,2.673,6.851,4.612c1.942,1.942,3.48,4.226,4.615,6.853c1.133,2.629,1.702,5.435,1.702,8.42v19.17
		c0,0.776-0.27,1.434-0.806,1.971c-0.539,0.538-1.196,0.806-1.972,0.806c-0.776,0-1.433-0.269-1.972-0.806
		c-0.536-0.538-0.806-1.195-0.806-1.971v-19.17c0-2.208-0.419-4.284-1.254-6.226c-0.837-1.939-1.987-3.642-3.448-5.104
		c-1.466-1.463-3.165-2.612-5.106-3.45c-1.942-0.836-4.018-1.254-6.226-1.254c-2.21,0-4.285,0.418-6.226,1.254
		c-1.94,0.838-3.643,1.986-5.104,3.45c-1.465,1.463-2.613,3.166-3.449,5.104c-0.838,1.942-1.254,4.018-1.254,6.226v19.17
		c0,0.776-0.27,1.434-0.808,1.971c-0.537,0.538-1.193,0.806-1.97,0.806c-0.778,0-1.434-0.269-1.971-0.806
		c-0.538-0.538-0.806-1.195-0.806-1.971V77.909z"/>
</g>
<circle fill="#D81F26" cx="475.179" cy="78.274" r="5.381"/>
<circle fill="none" stroke="#1C75BC" stroke-width="0.6116" stroke-miterlimit="10" cx="475.179" cy="78.274" r="16.086"/>
<text transform="matrix(1 0 0 1 10.9648 -237.2446)" fill="#1C75BC" font-family="'Arista2.0Light'" font-size="89.0987">Drop in</text>
<g>
	<path fill-rule="evenodd" clip-rule="evenodd" fill="#262262" d="M429.717-166.693c0-2.657-0.639-5.099-1.918-7.321
		c-1.277-2.225-3.027-3.976-5.252-5.254c-2.223-1.277-4.668-1.916-7.334-1.916c-2.566,0-4.955,0.652-7.17,1.961
		c-2.217,1.309-3.973,3.068-5.271,5.277c-1.301,2.211-1.949,4.613-1.949,7.203c0,2.615,0.648,5.037,1.949,7.265
		c0.357,0.616,2.227,3.715,2.834,4.63c3.145,4.728,6.281,9.462,9.42,14.198c0.105,0.159,0.184,0.359,0.256,0.507
		c3.082-4.642,11.045-17.186,12.797-20.01c0.236-0.383,0.506-0.943,0.584-1.131C429.354-162.982,429.717-164.782,429.717-166.693z
		 M408.395-170.721c0.686-1.209,1.629-2.178,2.83-2.905s2.531-1.117,3.988-1.168h0.203c1.381,0,2.67,0.37,3.865,1.11
		c1.197,0.741,2.154,1.737,2.869,2.988c0.717,1.252,1.074,2.605,1.074,4.061c0,1.481-0.35,2.837-1.047,4.068
		c-0.699,1.229-1.658,2.193-2.877,2.891c-1.217,0.699-2.564,1.048-4.037,1.048c-2.215,0-4.086-0.778-5.611-2.337
		c-1.525-1.558-2.287-3.482-2.287-5.771C407.365-168.184,407.709-169.512,408.395-170.721z"/>
	<path fill-rule="evenodd" clip-rule="evenodd" fill="#D42028" d="M415.27-171.373c2.607-0.021,4.771,2.101,4.785,4.693
		c0.018,2.626-2.121,4.807-4.766,4.787c-2.809-0.021-4.775-2.262-4.789-4.7C410.488-169.225,412.602-171.354,415.27-171.373z"/>
</g>
<path fill="#1C75BC" d="M54.05,26.429c-1.691-1.662-3.713-2.954-6.059-3.876c-2.346-0.92-4.975-1.381-7.885-1.381l-18.711,0.089
	c-0.771,0-1.426,0.268-1.959,0.802c-0.535,0.535-0.803,1.189-0.803,1.961v51.944c0,0.772,0.268,1.426,0.803,1.96
	c0.533,0.535,1.188,0.802,1.959,0.802h18.801c2.908,0,5.537-0.459,7.885-1.381c2.346-0.92,4.35-2.212,6.014-3.876
	c1.662-1.662,2.955-3.667,3.877-6.014c0.92-2.346,1.381-4.945,1.381-7.796V40.239c0-2.852-0.461-5.449-1.381-7.796
	C57.05,30.097,55.743,28.093,54.05,26.429z M53.827,59.663c0,4.218-1.201,7.528-3.607,9.934c-2.406,2.406-5.748,3.609-10.023,3.609
	H24.157v-46.51h15.949c4.395,0,7.781,1.202,10.158,3.608c2.375,2.405,3.563,5.718,3.563,9.935V59.663z"/>
<path fill="#1C75BC" d="M88.042,38.189c0-0.771-0.283-1.425-0.848-1.96c-0.564-0.534-1.322-0.802-2.271-0.802
	c-2.91,0.06-5.645,0.654-8.197,1.782c-2.555,1.129-4.797,2.673-6.727,4.633c-1.932,1.96-3.445,4.232-4.545,6.816
	s-1.648,5.332-1.648,8.241v19.067c0,0.772,0.268,1.426,0.803,1.96c0.535,0.535,1.188,0.802,1.961,0.802
	c0.771,0,1.426-0.267,1.959-0.802c0.535-0.534,0.803-1.188,0.803-1.96V56.9c0-2.139,0.4-4.172,1.203-6.104
	c0.801-1.929,1.914-3.608,3.34-5.033c1.426-1.426,3.088-2.569,4.99-3.431c1.9-0.86,3.92-1.321,6.059-1.381
	c0.949,0,1.707-0.268,2.271-0.802C87.759,39.615,88.042,38.963,88.042,38.189z"/>
<path fill="#1C75BC" d="M128.224,57.257c0-2.97-0.578-5.761-1.736-8.375c-0.061-0.134-0.133-0.258-0.193-0.39
	c-0.229-0.503-0.473-0.996-0.736-1.479c-0.008-0.015-0.016-0.03-0.023-0.045c-0.074-0.137-0.143-0.276-0.221-0.411h-0.033
	c-0.971-1.664-2.119-3.184-3.471-4.536c-1.961-1.961-4.232-3.52-6.816-4.678s-5.303-1.738-8.152-1.738
	c-3.09,0.12-5.957,0.758-8.6,1.916s-4.93,2.704-6.859,4.633c-1.313,1.313-2.418,2.789-3.346,4.403h-0.049
	c-0.438,0.749-0.85,1.519-1.209,2.33c-0.828,1.868-1.346,3.83-1.586,5.878h-0.008c-0.027,0.228-0.047,0.457-0.064,0.687
	c-0.002,0.051-0.002,0.102-0.004,0.152c-0.006,0.07-0.01,0.142-0.016,0.213c-0.025,0.398-0.055,0.796-0.061,1.2
	c-0.002,0.098-0.008,0.193-0.008,0.291c0,0.448,0.037,0.886,0.064,1.327c0.064,1.006,0.17,2,0.367,2.964
	c0.283,1.372,0.707,2.704,1.27,3.994c0.49,1.124,1.082,2.168,1.725,3.173c0.182,0.289,0.357,0.581,0.551,0.858
	c0.045,0.064,0.082,0.135,0.127,0.198c0.066,0.091,0.389,0.549,0.859,1.216c1.6,2.263,4.988,7.054,6.52,9.116
	c3.293,4.432,6.738,8.756,10.258,13.305c4.256-5.532,8.326-10.895,12.479-16.198c1.41-1.803,2.742-3.65,3.947-5.575
	c0.293-0.467,2.709-4.187,3.396-5.779c0.918-2.13,1.408-4.551,1.582-6.995C128.19,58.817,128.224,57.593,128.224,57.257z
	 M100.47,42.467c1.93-0.831,3.994-1.248,6.191-1.248s4.277,0.417,6.238,1.248c1.959,0.832,3.666,1.976,5.123,3.43
	c0.211,0.212,0.4,0.439,0.6,0.661h-0.092c0.143,0.165,0.297,0.318,0.434,0.488c2.008,2.418,3.316,5.434,3.629,8.74
	c0.031,0.231,0.045,0.472,0.07,0.707c0.012,0.255,0.037,0.506,0.037,0.764c0,2.198-0.416,4.263-1.248,6.192
	c-0.832,1.931-1.975,3.624-3.43,5.079c-1.457,1.456-3.164,2.599-5.123,3.43c-1.961,0.833-4.041,1.248-6.238,1.248
	s-4.262-0.415-6.191-1.248c-1.932-0.831-3.623-1.974-5.078-3.43c-1.457-1.455-2.6-3.148-3.432-5.079
	c-0.832-1.93-1.246-3.994-1.246-6.192c0-2.196,0.414-4.276,1.246-6.236c0.832-1.961,1.975-3.667,3.432-5.124
	C96.847,44.442,98.538,43.299,100.47,42.467z"/>
<path fill="#1C75BC" d="M169.521,42.021c-1.93-1.961-4.203-3.505-6.814-4.634c-2.615-1.127-5.436-1.692-8.465-1.692
	c-2.971,0-5.748,0.534-8.332,1.604s-4.855,2.555-6.814,4.455c-1.961,1.901-3.506,4.158-4.635,6.771
	c-1.129,2.614-1.691,5.466-1.691,8.554v35.016c0,0.771,0.268,1.426,0.801,1.96c0.535,0.534,1.188,0.802,1.961,0.802
	c0.771,0,1.426-0.268,1.959-0.802c0.535-0.534,0.803-1.188,0.803-1.96V70.622c1.961,2.138,4.307,3.995,7.039,5.568
	c2.73,1.574,5.76,2.421,9.088,2.539c2.852,0,5.568-0.579,8.152-1.737s4.855-2.718,6.816-4.678s3.52-4.246,4.678-6.86
	c1.158-2.613,1.736-5.404,1.736-8.375c0-2.91-0.564-5.658-1.691-8.242C172.981,46.253,171.45,43.981,169.521,42.021z M169.03,63.315
	c-0.832,1.96-1.975,3.669-3.43,5.123c-1.455,1.457-3.162,2.6-5.123,3.431c-1.961,0.832-4.039,1.247-6.236,1.247
	c-2.139,0-4.158-0.4-6.059-1.202c-1.902-0.803-3.564-1.916-4.99-3.342s-2.584-3.118-3.475-5.078
	c-0.891-1.961-1.367-4.099-1.426-6.415c0-2.197,0.414-4.262,1.248-6.192c0.83-1.93,1.973-3.623,3.43-5.079
	c1.455-1.455,3.148-2.598,5.078-3.43s3.994-1.248,6.193-1.248c2.197,0,4.275,0.416,6.236,1.248s3.668,1.975,5.123,3.43
	c1.455,1.456,2.598,3.149,3.43,5.079c0.832,1.931,1.248,3.995,1.248,6.192C170.278,59.277,169.862,61.355,169.03,63.315z"/>
<g>
	<path fill="#D81F26" d="M200.759,22.241c-1.012,0-1.871,0.356-2.584,1.069s-1.07,1.574-1.07,2.584c0,1.011,0.357,1.871,1.07,2.584
		c0.713,0.712,1.572,1.068,2.584,1.068c1.01,0,1.871-0.356,2.584-1.068c0.713-0.713,1.068-1.573,1.068-2.584
		c0-1.01-0.355-1.871-1.068-2.584S201.769,22.241,200.759,22.241z"/>
	<path fill="#D81F26" d="M200.759,35.517c-0.773,0-1.426,0.268-1.961,0.802c-0.535,0.535-0.801,1.189-0.801,1.961v37.688
		c0,0.772,0.266,1.426,0.801,1.96c0.535,0.535,1.188,0.802,1.961,0.802c0.771,0,1.426-0.267,1.959-0.802
		c0.535-0.534,0.803-1.188,0.803-1.96V38.279c0-0.771-0.268-1.426-0.803-1.961C202.185,35.784,201.53,35.517,200.759,35.517z"/>
	<path fill="#D81F26" d="M249.673,48.525c-1.129-2.613-2.66-4.885-4.59-6.816c-1.93-1.93-4.201-3.459-6.814-4.588
		c-2.615-1.128-5.406-1.693-8.375-1.693c-2.973,0-5.764,0.565-8.377,1.693c-2.613,1.129-4.887,2.658-6.814,4.588
		c-1.932,1.932-3.461,4.203-4.59,6.816c-1.129,2.614-1.693,5.405-1.693,8.375v19.067c0,0.772,0.268,1.426,0.803,1.96
		c0.535,0.535,1.188,0.802,1.961,0.802c0.771,0,1.426-0.267,1.959-0.802c0.535-0.534,0.803-1.188,0.803-1.96V56.9
		c0-2.196,0.414-4.262,1.246-6.192c0.832-1.93,1.975-3.622,3.432-5.078c1.455-1.455,3.146-2.598,5.078-3.431
		c1.93-0.831,3.994-1.247,6.193-1.247c2.195,0,4.26,0.416,6.191,1.247c1.93,0.833,3.623,1.976,5.078,3.431
		c1.455,1.456,2.598,3.148,3.432,5.078c0.83,1.931,1.246,3.996,1.246,6.192v19.067c0,0.772,0.268,1.426,0.803,1.96
		c0.535,0.535,1.188,0.802,1.959,0.802s1.426-0.267,1.961-0.802c0.535-0.534,0.803-1.188,0.803-1.96V56.9
		C251.366,53.931,250.8,51.14,249.673,48.525z"/>
</g>
<circle fill="#D81F26" cx="106.583" cy="57.315" r="9.131"/>
</svg>
